# xmcd
#
# Track frame offsets: 
#        150
#        17657
#        31905
#        59140
#        98905
#        135986
#        152245
#        165859
#        183147
#        199103
#        226653
#        243685
#        270344
#        287378
#        309946
#
# Disc length: 4485 seconds
#
# Revision: 0
# Processed by: cddbd v1.5.1PL2 Copyright (c) Steve Scherf et al.
# Submitted via: ExactAudioCopy v0.95a5
#
DISCID=b611830f
DTITLE=Peter Green - White Sky
DYEAR=1981
DGENRE=Blues
TTITLE0=Time For Me To Go
TTITLE1=Shining Star
TTITLE2=The Clown
TTITLE3=White Sky (Love That Evil Woman)
TTITLE4=Funky Jam
TTITLE5=It's Gonna Be Me
TTITLE6=Born On The Wild Side
TTITLE7=Fallin' Apart
TTITLE8=Indian Lover
TTITLE9=Just Another Guy
TTITLE10=Touch My Spirit (bonus track)
TTITLE11=Big Boy Now (bonus track)
TTITLE12=Corners Of Mind (bonus track)
TTITLE13=Carry My Love (bonus track)
TTITLE14=Just Another Guy (vocal version - bonus track)
EXTD=
EXTT0=
EXTT1=
EXTT2=
EXTT3=
EXTT4=
EXTT5=
EXTT6=
EXTT7=
EXTT8=
EXTT9=
EXTT10=
EXTT11=
EXTT12=
EXTT13=
EXTT14=
PLAYORDER=
